<svg xmlns="http://www.w3.org/2000/svg" viewBox="0 0 799.1 136.5" width="100%" height="100%">
  <path fill="#010101" d="M169.3 16a6.1 6.1 0 0 1-1.7 4.7 6.9 6.9 0 0 1-4.9 1.7 6.3 6.3 0 0 1-5-2 7.9 7.9 0 0 1-1.9-5.7V9.1a8.3 8.3 0 0 1 1.8-5.7 6.9 6.9 0 0 1 5-2.1 7.1 7.1 0 0 1 5 1.7 6.3 6.3 0 0 1 1.7 4.8h-2.8a4.7 4.7 0 0 0-1-3.2 3.8 3.8 0 0 0-2.9-1 3.4 3.4 0 0 0-2.9 1.4 6.6 6.6 0 0 0-1 4.1v5.7a7 7 0 0 0 1.1 4.2 3.4 3.4 0 0 0 3 1.4 3.7 3.7 0 0 0 2.8-1 4.7 4.7 0 0 0 .9-3.3h2.8zM181.5 17h-6.2l-1.4 5.2h-3L177 1.6h2.8l6.2 20.6h-3zm-5.5-2.3h4.9l-2.4-8.3h-.1zM202.2 22.2h-2.9l-8-15.2h-.1v15.2h-2.9V1.6h2.9l8 15.2h.1V1.6h2.9v20.6zM215.5 17h-6.2l-1.5 5.2h-3L211 1.6h2.8l6.1 20.6h-3zm-5.5-2.3h4.8l-2.3-8.3h-.1zM222.3 22.2V1.6h5.9a6.9 6.9 0 0 1 5.4 2.5 9.3 9.3 0 0 1 2.1 6.4v2.9a9.3 9.3 0 0 1-2.1 6.4 6.5 6.5 0 0 1-5.4 2.4zm2.9-18.4V20h3a3.6 3.6 0 0 0 3.4-1.8 8.2 8.2 0 0 0 1.2-4.8v-3a8.2 8.2 0 0 0-1.2-4.8 4 4 0 0 0-3.4-1.8zM242.3 22.2h-2.9V1.6h2.9zM255.9 17h-6.2l-1.5 5.2h-3l6.2-20.6h2.8l6.1 20.6h-3zm-5.5-2.3h4.8l-2.4-8.3zM276.5 22.2h-2.9l-8-15.2v15.2h-2.9V1.6h2.9l8 15.2V1.6h2.9v20.6zM289.9 22.2h-2.8V1.6h2.8zM302.8 18.4h.1l4.9-16.8h3.6v20.6h-2.8V7.4h-.1l-4.7 14.8h-2L297 7.1h-.1v15.1h-2.8V1.6h3.7zM323.9 18.4h.1l4.9-16.8h3.7v20.6h-2.8V7.4h-.1L325 22.2h-2l-4.8-15.1h-.1v15.1h-2.9V1.6h3.8zM339.6 22.2h-2.9V1.6h2.9zM356.9 19.5a6.6 6.6 0 0 1-2.3 2.1 7.6 7.6 0 0 1-4.2.9 6.8 6.8 0 0 1-5.2-2 7.6 7.6 0 0 1-2-5.6V8.8a7.5 7.5 0 0 1 2-5.5 7.7 7.7 0 0 1 9.9-.4 6 6 0 0 1 1.6 4.4H354a4.5 4.5 0 0 0-.9-2.9 3.9 3.9 0 0 0-2.8-1 4.1 4.1 0 0 0-3 1.4 6 6 0 0 0-1.1 3.9V15a5.9 5.9 0 0 0 1.2 4 4.1 4.1 0 0 0 3.1 1.4 5.9 5.9 0 0 0 2.3-.5 2.4 2.4 0 0 0 1.3-1.1V14h-3.8v-2.1h6.7v7.7zM363.6 13.4v8.8h-2.9V1.6h6.1a7.1 7.1 0 0 1 4.6 1.5 6 6 0 0 1 1.6 4.4 5.4 5.4 0 0 1-.8 2.8 5.1 5.1 0 0 1-2.2 1.9 3.8 3.8 0 0 1 2.3 1.8 5.3 5.3 0 0 1 .7 3v1.8a11 11 0 0 0 .2 1.8 2.4 2.4 0 0 0 .7 1.3v.3h-3a2.7 2.7 0 0 1-.7-1.4 13.4 13.4 0 0 1-.1-2v-1.7a4.6 4.6 0 0 0-.8-2.8 3 3 0 0 0-2.2-1h-3.5zm0-2.2h3.1a3.7 3.7 0 0 0 2.6-1 3.6 3.6 0 0 0 .8-2.7 3.9 3.9 0 0 0-.8-2.7 3 3 0 0 0-2.5-1h-3.2v7.3zM385.9 17h-6.1l-1.5 5.2h-3l6.2-20.6h2.8l6.1 20.6h-3zm-5.5-2.3h4.9l-2.4-8.3h-.1zM403.3 3.8h-5.5v18.4h-2.9V3.8h-5.4V1.6h13.7v2.2zM408.9 22.2H406V1.6h2.9zM426.9 14.8a7.6 7.6 0 0 1-2 5.7 6.9 6.9 0 0 1-5.3 2 7.2 7.2 0 0 1-5.2-2 7.6 7.6 0 0 1-1.9-5.7V9.1a7.5 7.5 0 0 1 1.9-5.7 6.9 6.9 0 0 1 5.2-2.1 7 7 0 0 1 5.3 2.1 7.4 7.4 0 0 1 2 5.7v5.7zm-2.8-5.7a6 6 0 0 0-1.2-4.1 3.8 3.8 0 0 0-3.3-1.4 3.4 3.4 0 0 0-3.1 1.4 6 6 0 0 0-1.1 4.1v5.7a6.7 6.7 0 0 0 1.1 4.1 4.2 4.2 0 0 0 3.2 1.4 4 4 0 0 0 3.2-1.4 6.2 6.2 0 0 0 1.2-4.1V9.1zM444.1 22.2h-2.9l-8-15.2v15.2h-2.9V1.6h2.9l8 15.2V1.6h2.9v20.6zM457.3 20h8.4v2.2h-11.3V1.6h2.9zM477.8 17h-6.2l-1.5 5.2h-3l6.2-20.6h2.8l6.1 20.6h-3zm-5.5-2.3h4.8l-2.3-8.3h-.1zM497.4 16.3h.1l2.7-14.7h3l-4.3 20.6h-2.6l-3.6-14.6h-.1L489 22.2h-2.6l-4.3-20.6h3l2.8 14.7 3.5-14.6h2.5zM511.6 11.7h.1l4.3-10h3.2L513 14.9v7.4h-2.9v-7.7l-6-13h3.2zM531.4 12.6h-7V20h8.3v2.2h-11.1V1.6h11v2.2h-8.2v6.7h7v2.2zM538.4 13.4v8.8h-2.8V1.6h6a6.9 6.9 0 0 1 4.6 1.5 5.6 5.6 0 0 1 1.6 4.4 4.5 4.5 0 0 1-.7 2.8 5.1 5.1 0 0 1-2.2 1.9 3.8 3.8 0 0 1 2.3 1.8 6.3 6.3 0 0 1 .7 3v1.8a11 11 0 0 0 .2 1.8 3.1 3.1 0 0 0 .6 1.3v.3h-3a3.5 3.5 0 0 1-.6-1.4 13.4 13.4 0 0 1-.1-2v-1.7a5.4 5.4 0 0 0-.8-2.8 3.3 3.3 0 0 0-2.3-1h-3.5zm0-2.2h3.1a3.5 3.5 0 0 0 2.6-1 4.2 4.2 0 0 0 .9-2.7 4.6 4.6 0 0 0-.9-2.7 2.9 2.9 0 0 0-2.5-1h-3.2v7.3zM182.8 84.2h.3l14.1-48h10.5v58.9h-8.2V52.6h-.2l-13.5 42.5h-5.6L166.4 52h-.2v43H158V36.2h10.8zM245.5 80.2h-17.6l-4.3 14.9h-8.5l17.7-58.9h8l17.5 58.9h-8.5zm-15.7-6.5h13.9l-6.8-24h-.2zM295 42.5h-15.6V95h-8.3V42.5h-15.4v-6.3H295zM337.9 42.5h-15.6V95H314V42.5h-15.4v-6.3h39.3zM384.4 95.1h-8.2v-26h-23v26H345V36.2h8.2v26.6h23V36.2h8.2zM423.8 67.7h-20v21.1h23.6v6.3h-31.8V36.2h31.6v6.3h-23.4v19h20v6.3zM474.9 78h.3l7.6-41.8h8.6l-12.1 58.9h-7.5l-10.3-41.8h-.2L450.9 95h-7.5l-12.1-58.8h8.6l7.7 41.7h.3l9.9-41.7h7.1zM537.1 36.2h8.2v41.4c0 5.6-1.5 10-4.4 13.4a15.1 15.1 0 0 1-11.5 5c-5 0-9-1.5-11.9-4.4s-4.4-7.2-4.3-12.8l.2-.3h7.9c0 3.8.7 6.6 2.1 8.5a7.4 7.4 0 0 0 6 2.7 6.2 6.2 0 0 0 5.5-3.2c1.5-2.2 2.2-5.1 2.2-8.8V36.2zM584.6 67.7h-20v21.1h23.6v6.3h-31.8V36.2H588v6.3h-23.3v19h20v6.3zM625.2 68.9h-20.6v26.2h-8.2V36.2h32.4v6.3h-24.2v20.1h20.6v6.3zM665.2 68.9h-20.6v26.2h-8.2V36.2h32.4v6.3h-24.2v20.1h20.6v6.3zM704.5 67.7h-20v21.1h23.6v6.3h-31.8V36.2h31.6v6.3h-23.4v19h20v6.3zM724.5 69.7v25.4h-8.2V36.2h17.3c5.7 0 10.1 1.5 13.1 4.4s4.7 7 4.7 12.4a15.1 15.1 0 0 1-2.2 8 13.6 13.6 0 0 1-6.2 5.4 11 11 0 0 1 6.5 5.1 17.8 17.8 0 0 1 2 8.8v5.2a22 22 0 0 0 .6 5 6.9 6.9 0 0 0 1.8 3.6v1h-8.4a6.6 6.6 0 0 1-1.8-4.1 26.4 26.4 0 0 1-.4-5.6v-5a12.6 12.6 0 0 0-2.3-7.8 7.9 7.9 0 0 0-6.4-2.9zm0-6.3h8.7q5.1 0 7.5-2.7c1.7-1.8 2.5-4.3 2.5-7.6s-.8-6-2.4-7.8-4-2.8-7.2-2.8h-9.1zM777.4 64.9h.2l12.3-28.7h9.2l-17.7 37.7v21.2h-8.2V73.3l-17.3-37.1h9.1zM156.7 134.7v-20.6h5.7a6.8 6.8 0 0 1 4.6 1.4 5.2 5.2 0 0 1 1.7 4.2 5.9 5.9 0 0 1-.7 2.6 4.5 4.5 0 0 1-2 1.6 3.8 3.8 0 0 1 2.7 1.7 5.6 5.6 0 0 1 1 3.3 6 6 0 0 1-1.6 4.4 7.4 7.4 0 0 1-4.5 1.5h-6.9zm2.9-11.6h3.2a2.9 2.9 0 0 0 2.2-.9 3.3 3.3 0 0 0 .8-2.5 3 3 0 0 0-.9-2.5 3.8 3.8 0 0 0-2.5-.9h-2.8v6.8zm0 2v7.5h4a3.1 3.1 0 0 0 2.4-1 3.6 3.6 0 0 0 .8-2.7 3.9 3.9 0 0 0-.8-2.7 3 3 0 0 0-2.3-1.1zM198.6 129.5h-6.1l-1.5 5.2h-3l6.2-20.6h2.7l6.2 20.6h-3zm-5.5-2.2h4.9l-2.4-8.4h-.1zM225.1 125.9v8.8h-2.8v-20.6h6a6.5 6.5 0 0 1 4.6 1.6 5.6 5.6 0 0 1 1.6 4.3 4.5 4.5 0 0 1-.7 2.8 5 5 0 0 1-2.2 1.9 3.8 3.8 0 0 1 2.3 1.8 6.4 6.4 0 0 1 .7 3.1v1.8a4.7 4.7 0 0 0 .2 1.7 2.6 2.6 0 0 0 .6 1.3v.3h-3a2.5 2.5 0 0 1-.6-1.4 13.6 13.6 0 0 1-.2-2v-1.7a4 4 0 0 0-.8-2.8 2.9 2.9 0 0 0-2.2-1h-3.5zm0-2.2h3.1a3.2 3.2 0 0 0 2.6-1 4.1 4.1 0 0 0 .9-2.6 4.7 4.7 0 0 0-.9-2.8 3.2 3.2 0 0 0-2.5-1h-3.2v7.3zM258 125.9v8.8h-2.8v-20.6h6a6.3 6.3 0 0 1 4.6 1.6 5 5 0 0 1 1.6 4.3 4.8 4.8 0 0 1-2.9 4.7 3.8 3.8 0 0 1 2.3 1.8 6.4 6.4 0 0 1 .7 3.1v1.8a8.8 8.8 0 0 0 .2 1.7 2.6 2.6 0 0 0 .6 1.3v.3h-3a2.4 2.4 0 0 1-.5-1.4 15 15 0 0 1-.2-2v-1.8a3.9 3.9 0 0 0-.8-2.7 2.6 2.6 0 0 0-2.2-1H258zm0-2.2h3.1a3.2 3.2 0 0 0 2.6-1 4.1 4.1 0 0 0 .9-2.6 4 4 0 0 0-.8-2.8 3.1 3.1 0 0 0-2.5-1h-3.2v7.3zM291.2 134.7h-2.8v-20.6h2.8zM321.6 129.6a3.1 3.1 0 0 0-.8-2.4 7.8 7.8 0 0 0-2.8-1.6 12.2 12.2 0 0 1-4.5-2.4 4.7 4.7 0 0 1-1.5-3.8 5.1 5.1 0 0 1 1.7-4 6.4 6.4 0 0 1 4.4-1.5 6 6 0 0 1 4.6 1.7 6.6 6.6 0 0 1 1.7 4.4h-2.8a4.3 4.3 0 0 0-1-2.9 3.2 3.2 0 0 0-2.5-1.2 3.5 3.5 0 0 0-2.4 1 3.2 3.2 0 0 0-.8 2.4 2.7 2.7 0 0 0 .8 2.3 8.7 8.7 0 0 0 3 1.6 11.4 11.4 0 0 1 4.3 2.4 5.7 5.7 0 0 1-.2 7.9 7.5 7.5 0 0 1-4.6 1.5 7.8 7.8 0 0 1-4.7-1.6 5.3 5.3 0 0 1-1.9-4.7h2.7a4.2 4.2 0 0 0 1.1 3.2 4.8 4.8 0 0 0 2.8 1 3.8 3.8 0 0 0 2.5-.9 3.2 3.2 0 0 0 .9-2.4zM356.9 116.3h-5.5v18.4h-2.9v-18.4h-5.4v-2.2h13.8v2.2zM386 125.2h-7v7.4h8.2v2.1h-11.1v-20.6h11v2.3H379v6.6h7v2.2zM409.8 125.9v8.8h-2.9v-20.6h6.1a6.6 6.6 0 0 1 4.6 1.6 5.6 5.6 0 0 1 1.6 4.3 5.4 5.4 0 0 1-.8 2.8 4.8 4.8 0 0 1-2.1 1.9 3.9 3.9 0 0 1 2.2 1.8 5.5 5.5 0 0 1 .7 3.1v1.8a8.8 8.8 0 0 0 .2 1.7 2.1 2.1 0 0 0 .7 1.3v.3h-3a2.7 2.7 0 0 1-.7-1.4 13.4 13.4 0 0 1-.1-2v-1.7a4 4 0 0 0-.8-2.8 3 3 0 0 0-2.2-1h-3.5zm0-2.2h3a3.4 3.4 0 0 0 2.7-1 3.5 3.5 0 0 0 .8-2.6 4 4 0 0 0-.8-2.8 3.5 3.5 0 0 0-2.5-1h-3.2v7.3zM462 129.3a5.3 5.3 0 0 1 .9-3 9.9 9.9 0 0 1 2.7-2.7 12.8 12.8 0 0 1-1.5-2.5 5.9 5.9 0 0 1-.4-2.3 5 5 0 0 1 1.2-3.7 5.1 5.1 0 0 1 3.5-1.3 4.3 4.3 0 0 1 4.5 4.1v.3a5 5 0 0 1-.6 2.4 10.5 10.5 0 0 1-1.7 1.9l-1.6 1.3 4.2 5.5h.1a10.7 10.7 0 0 0 .7-1.9 16.4 16.4 0 0 0 .2-2.2h2.5a12.7 12.7 0 0 1-.5 3.4 9.2 9.2 0 0 1-1.4 2.8l2.5 3.3h-3.4l-1.1-1.4a10.5 10.5 0 0 1-2.3 1.3 7.4 7.4 0 0 1-2.5.5 6.5 6.5 0 0 1-4.4-1.6 5.6 5.6 0 0 1-1.6-4.2zm6.1 3.5l1.8-.3a5.4 5.4 0 0 0 1.6-1l-4.5-6.1-.3.3a4.5 4.5 0 0 0-1.4 1.9 4.2 4.2 0 0 0-.4 1.6 4.3 4.3 0 0 0 .9 2.6 2.8 2.8 0 0 0 2.3 1.1zm-1.7-14a3.2 3.2 0 0 0 .3 1.4 9.5 9.5 0 0 0 1 1.7l1.5-1.1a4 4 0 0 0 1-1.2 5.9 5.9 0 0 0 .2-1.4 2.7 2.7 0 0 0-.5-1.5 1.8 1.8 0 0 0-2.9.1 3.6 3.6 0 0 0-.6 2zM529.2 129.6a3.1 3.1 0 0 0-.8-2.4 7.1 7.1 0 0 0-2.8-1.6 13.1 13.1 0 0 1-4.5-2.4 4.7 4.7 0 0 1-1.5-3.8 5.1 5.1 0 0 1 1.7-4 6.4 6.4 0 0 1 4.4-1.5 5.7 5.7 0 0 1 6.2 6.1h-2.7a4.3 4.3 0 0 0-1-2.9 3.4 3.4 0 0 0-2.6-1.2 3.3 3.3 0 0 0-2.3 1 3.8 3.8 0 0 0-.9 2.4 3.2 3.2 0 0 0 .9 2.3 8.7 8.7 0 0 0 3 1.6 11.4 11.4 0 0 1 4.3 2.4 5.6 5.6 0 0 1 1.5 3.9 5.2 5.2 0 0 1-1.8 4 7.2 7.2 0 0 1-4.5 1.5 7.8 7.8 0 0 1-4.7-1.6 5.7 5.7 0 0 1-2-4.7h2.8a4.2 4.2 0 0 0 1.1 3.2 4.5 4.5 0 0 0 2.8 1 3.8 3.8 0 0 0 2.5-.9 3.2 3.2 0 0 0 .9-2.4zM566 127.3a8 8 0 0 1-2 5.7 6.9 6.9 0 0 1-5.3 2 6.6 6.6 0 0 1-5.2-2 8 8 0 0 1-2-5.7v-5.7a8 8 0 0 1 2-5.7 6.7 6.7 0 0 1 5.2-2.1 7 7 0 0 1 5.3 2.1 8 8 0 0 1 2 5.7v5.7zm-2.9-5.7a6.5 6.5 0 0 0-1.1-4.1 3.8 3.8 0 0 0-3.3-1.4 3.7 3.7 0 0 0-3.2 1.4 6.5 6.5 0 0 0-1.1 4.1v5.7a6.7 6.7 0 0 0 1.1 4.1 4 4 0 0 0 3.2 1.4 3.8 3.8 0 0 0 3.3-1.4 6 6 0 0 0 1.2-4.1v-5.7zM589.1 132.6h8.3v2.1h-11.2v-20.6h2.8v18.5zM620.1 134.7h-2.9v-20.6h2.9zM654 128.5a6.5 6.5 0 0 1-1.7 4.8 7.1 7.1 0 0 1-4.8 1.7 7.3 7.3 0 0 1-5.1-2 8.5 8.5 0 0 1-1.9-5.7v-5.8a8.5 8.5 0 0 1 1.9-5.7 6.3 6.3 0 0 1 5-2 6.9 6.9 0 0 1 4.9 1.7 5.6 5.6 0 0 1 1.7 4.7h-2.7a4.6 4.6 0 0 0-1-3.2 3.6 3.6 0 0 0-2.9-1 3.3 3.3 0 0 0-3 1.4 7.2 7.2 0 0 0-1 4.1v5.6a7.4 7.4 0 0 0 1.1 4.1 3.5 3.5 0 0 0 3 1.4 3.3 3.3 0 0 0 2.8-1 4.7 4.7 0 0 0 .9-3.3zM677.1 134.7h-2.9v-20.6h2.9zM710 116.3h-5.5v18.4h-2.9v-18.4h-5.4v-2.2H710zM742.8 127.3a8 8 0 0 1-2 5.7 7.1 7.1 0 0 1-5.3 2 6.6 6.6 0 0 1-5.2-2 8 8 0 0 1-2-5.7v-5.7a8 8 0 0 1 2-5.7 6.7 6.7 0 0 1 5.2-2.1 7.2 7.2 0 0 1 5.3 2.1 8 8 0 0 1 2 5.7v5.7zm-2.9-5.7a6.5 6.5 0 0 0-1.1-4.1 4 4 0 0 0-3.3-1.4 3.7 3.7 0 0 0-3.2 1.4 6.5 6.5 0 0 0-1.1 4.1v5.7a6.7 6.7 0 0 0 1.1 4.1 4 4 0 0 0 3.2 1.4 3.8 3.8 0 0 0 3.3-1.4 6.5 6.5 0 0 0 1.1-4.1v-5.7zM765.8 125.9v8.8h-2.9v-20.6h6.1a6.6 6.6 0 0 1 4.6 1.6 5.6 5.6 0 0 1 1.6 4.3 5.4 5.4 0 0 1-.8 2.8 4.8 4.8 0 0 1-2.1 1.9 3.9 3.9 0 0 1 2.2 1.8 5.5 5.5 0 0 1 .7 3.1v1.8a8.8 8.8 0 0 0 .2 1.7 2.1 2.1 0 0 0 .7 1.3v.3h-3a2 2 0 0 1-.6-1.4 13.6 13.6 0 0 1-.2-2v-1.7a4 4 0 0 0-.8-2.8 3 3 0 0 0-2.2-1h-3.5zm0-2.2h3a3.4 3.4 0 0 0 2.7-1 3.5 3.5 0 0 0 .8-2.6 4 4 0 0 0-.8-2.8 3.5 3.5 0 0 0-2.5-1h-3.2v7.3z"/>
  <path fill="#335075" d="M64.2 78.1zM64.3 76.7zM135.7.6V0H0v72.5c2.7 3.6 7.6 9.2 10.1 7 0 0 3.4.3-1.7-21.8l-5-29.1s14.6 9.5 17.8 5.7S37 3.7 37 3.7s14.4 33 18.9 31.8 15.3-7.4 15.3-7.4-5.2 33.4-6.7 46.3l.4-2.9zM64.2 77.7zM64.3 77.2zM64.4 76.1zM64.5 74.9zM64.4 75.5l.1-.4-.1.4zM64.2 78.7zM64.2 79.2zM64.2 79zM64.2 78.4z"/>
  <path fill="#f89a3b" d="M135.7.6L64.9 71.5l-.4 2.9v.6l-.1.4v.6l-.1.3V78.6c.6 1.9 3.2 1.1 4.8-.1l1.1-1.1c3-3.5 2.7-3.1 18.4-22.5 0 0 3.8 14.4 7.4 14s24.5-5.5 24.5-5.5l-7.2 27s-1.1 4.2 4.6 7.1 6.5 3.1 6.5 3.1l-41.9 35.8h53.3V.6z"/>
</svg>
